<?xml version="1.0" encoding="UTF-8"?>
<svg xmlns="http://www.w3.org/2000/svg" viewBox="0 0 521.45 195.43">
  <defs>
    <style>
      .cls-1 {
        fill: none;
        stroke: #fff;
        stroke-miterlimit: 10;
        stroke-width: 8.25px;
      }

      .cls-2 {
        fill: #231f20;
      }

      .cls-3 {
        fill: #be1e2d;
      }
    </style>
  </defs>
  <g id="Layer_1" data-name="Layer 1">
    <g>
      <path class="cls-2" d="M173.65,174.49c-.71-1.17-1.07-2.96-1.07-5.34v-9.96c0-2.13.42-3.75,1.25-4.84.83-1.09,2.07-1.64,3.72-1.64,1.33,0,2.37.31,3.11.91.74.61,1.25,1.5,1.53,2.66.28,1.17.42,2.66.42,4.49h-3.96v-2.07c0-.56-.07-.99-.2-1.29s-.37-.46-.72-.46c-.77,0-1.15.57-1.15,1.72v11.19c0,.7.08,1.23.24,1.59.16.36.43.54.82.54s.67-.18.82-.54c.16-.36.24-.89.24-1.59v-3.31h-1.08v-3.98h4.95v13.45h-1.62l-.68-1.94c-.72,1.44-1.84,2.15-3.34,2.15s-2.55-.59-3.26-1.76Z"/>
      <path class="cls-2" d="M185.15,174.64c-.81-1.08-1.21-2.67-1.21-4.79v-16.92h3.93v16.74c0,.74.06,1.31.19,1.72.13.41.39.62.8.62s.67-.2.8-.61.19-.98.19-1.74v-16.74h3.93v16.92c0,2.12-.4,3.71-1.21,4.79-.81,1.08-2.04,1.61-3.71,1.61s-2.9-.54-3.71-1.61Z"/>
      <path class="cls-2" d="M195.14,176.04v-23.11h3.91v23.11h-3.91Z"/>
      <path class="cls-2" d="M200.68,176.04v-23.11h4.05v19.19h4.17v3.93h-8.22Z"/>
      <path class="cls-2" d="M210.02,152.92h5.58c1.44,0,2.53.46,3.25,1.37s1.09,2.27,1.11,4.06l.05,10.82c.02,2.28-.33,3.99-1.04,5.14-.71,1.15-1.88,1.72-3.51,1.72h-5.44v-23.11ZM214.8,171.95c.74,0,1.11-.41,1.11-1.24v-11.92c0-.52-.04-.91-.11-1.17-.07-.26-.2-.43-.39-.52-.19-.09-.48-.13-.87-.13h-.45v14.99h.71Z"/>
      <path class="cls-2" d="M221.63,176.04v-23.11h4.05v19.19h4.17v3.93h-8.22Z"/>
      <path class="cls-2" d="M230.79,176.04v-23.11h3.91v23.11h-3.91Z"/>
      <path class="cls-2" d="M236.33,176.04v-23.11h4.17l1.86,11.06v-11.06h3.91v23.11h-3.96l-2.02-11.57v11.57h-3.96Z"/>
      <path class="cls-2" d="M248.05,176.04v-23.11h8.1v4.47h-3.98v4.49h3.81v4.36h-3.81v5.3h4.24v4.49h-8.36Z"/>
      <path class="cls-2" d="M257.54,169.34v-3.04h5.93v3.04h-5.93Z"/>
      <path class="cls-2" d="M265.08,152.92h5.58c1.44,0,2.53.46,3.25,1.37.72.92,1.09,2.27,1.11,4.06l.05,10.82c.02,2.28-.33,3.99-1.04,5.14-.71,1.15-1.88,1.72-3.51,1.72h-5.44v-23.11ZM269.86,171.95c.74,0,1.11-.41,1.11-1.24v-11.92c0-.52-.04-.91-.11-1.17-.07-.26-.2-.43-.39-.52-.19-.09-.48-.13-.87-.13h-.45v14.99h.71Z"/>
      <path class="cls-2" d="M276.5,176.04v-23.11h3.91v23.11h-3.91Z"/>
      <path class="cls-2" d="M282.03,152.92h6.22c.99,0,1.75.26,2.3.77.54.51.91,1.23,1.09,2.15.19.92.28,2.1.28,3.54,0,1.31-.15,2.33-.45,3.07-.3.74-.82,1.25-1.55,1.53.61.14,1.06.49,1.33,1.05.27.56.41,1.31.41,2.26l-.05,8.75h-3.96v-9.04c0-.65-.11-1.06-.33-1.24-.22-.18-.62-.27-1.2-.27v10.55h-4.1v-23.11ZM287.12,161.48c.56,0,.85-.7.85-2.1,0-.61-.02-1.07-.07-1.37-.05-.3-.13-.52-.26-.63s-.31-.17-.54-.17h-.94v4.28h.97Z"/>
      <path class="cls-2" d="M293.26,176.04v-23.11h8.1v4.47h-3.98v4.49h3.81v4.36h-3.81v5.3h4.24v4.49h-8.36Z"/>
      <path class="cls-2" d="M304.13,174.66c-.89-1.06-1.33-2.51-1.33-4.36v-10.66c0-2.3.4-4.03,1.2-5.19s2.06-1.75,3.77-1.75c1.49,0,2.69.47,3.6,1.4.91.93,1.37,2.28,1.37,4.04v3.98h-4.03v-3.42c0-.66-.07-1.12-.21-1.37-.14-.25-.38-.38-.73-.38s-.61.14-.74.43c-.13.29-.2.71-.2,1.27v11.6c0,.61.08,1.05.24,1.33.16.28.39.42.71.42.63,0,.94-.58.94-1.75v-4.17h4.07v4.36c0,3.87-1.7,5.81-5.11,5.81-1.48,0-2.66-.53-3.54-1.59Z"/>
      <path class="cls-2" d="M315.87,176.04v-18.67h-2.4v-4.44h8.85v4.44h-2.4v18.67h-4.05Z"/>
      <path class="cls-2" d="M323.45,176.04v-23.11h8.1v4.47h-3.98v4.49h3.81v4.36h-3.81v5.3h4.24v4.49h-8.36Z"/>
      <path class="cls-2" d="M333.15,152.92h5.58c1.44,0,2.53.46,3.25,1.37.72.92,1.09,2.27,1.11,4.06l.05,10.82c.02,2.28-.33,3.99-1.04,5.14-.71,1.15-1.88,1.72-3.51,1.72h-5.44v-23.11ZM337.93,171.95c.74,0,1.11-.41,1.11-1.24v-11.92c0-.52-.04-.91-.11-1.17-.07-.26-.2-.43-.39-.52-.19-.09-.48-.13-.87-.13h-.45v14.99h.71Z"/>
      <path class="cls-2" d="M350.27,176.04v-23.11h6.17l1.7,14.1,1.7-14.1h6.22v23.11h-3.7v-16.66l-2.33,16.66h-3.63l-2.47-16.66v16.66h-3.65Z"/>
      <path class="cls-2" d="M367.84,176.04v-23.11h8.1v4.47h-3.98v4.49h3.81v4.36h-3.81v5.3h4.24v4.49h-8.36Z"/>
      <path class="cls-2" d="M377.54,152.92h5.58c1.44,0,2.53.46,3.25,1.37.72.92,1.09,2.27,1.11,4.06l.05,10.82c.02,2.28-.33,3.99-1.04,5.14-.71,1.15-1.88,1.72-3.51,1.72h-5.44v-23.11ZM382.32,171.95c.74,0,1.11-.41,1.11-1.24v-11.92c0-.52-.04-.91-.11-1.17-.07-.26-.2-.43-.39-.52-.19-.09-.48-.13-.87-.13h-.45v14.99h.71Z"/>
      <path class="cls-2" d="M388.96,176.04v-23.11h3.91v23.11h-3.91Z"/>
      <path class="cls-2" d="M395.66,174.66c-.89-1.06-1.33-2.51-1.33-4.36v-10.66c0-2.3.4-4.03,1.2-5.19s2.06-1.75,3.77-1.75c1.49,0,2.69.47,3.6,1.4.91.93,1.37,2.28,1.37,4.04v3.98h-4.03v-3.42c0-.66-.07-1.12-.21-1.37-.14-.25-.38-.38-.73-.38s-.61.14-.74.43c-.13.29-.2.71-.2,1.27v11.6c0,.61.08,1.05.24,1.33.16.28.39.42.71.42.63,0,.94-.58.94-1.75v-4.17h4.07v4.36c0,3.87-1.7,5.81-5.11,5.81-1.48,0-2.66-.53-3.54-1.59Z"/>
      <path class="cls-2" d="M405.12,176.04l1.95-23.11h6.85l1.93,23.11h-3.84l-.28-3.74h-2.45l-.24,3.74h-3.93ZM409.59,168.61h1.84l-.89-11.76h-.19l-.75,11.76Z"/>
      <path class="cls-2" d="M417.08,176.04v-23.11h4.05v19.19h4.17v3.93h-8.22Z"/>
      <path class="cls-2" d="M433.68,176.04v-18.67h-2.4v-4.44h8.85v4.44h-2.4v18.67h-4.05Z"/>
      <path class="cls-2" d="M441.26,176.04v-23.11h4.03v8.26h1.91v-8.26h4.03v23.11h-4.03v-10.49h-1.91v10.49h-4.03Z"/>
      <path class="cls-2" d="M453.01,176.04v-23.11h8.1v4.47h-3.98v4.49h3.81v4.36h-3.81v5.3h4.24v4.49h-8.36Z"/>
      <path class="cls-2" d="M462.71,152.92h6.22c.99,0,1.75.26,2.3.77.54.51.91,1.23,1.09,2.15.19.92.28,2.1.28,3.54,0,1.31-.15,2.33-.45,3.07-.3.74-.82,1.25-1.55,1.53.61.14,1.06.49,1.33,1.05.27.56.41,1.31.41,2.26l-.05,8.75h-3.96v-9.04c0-.65-.11-1.06-.33-1.24-.22-.18-.62-.27-1.2-.27v10.55h-4.1v-23.11ZM467.8,161.48c.56,0,.85-.7.85-2.1,0-.61-.02-1.07-.07-1.37-.05-.3-.13-.52-.26-.63s-.31-.17-.54-.17h-.94v4.28h.97Z"/>
      <path class="cls-2" d="M473.4,176.04l1.95-23.11h6.85l1.93,23.11h-3.84l-.28-3.74h-2.45l-.24,3.74h-3.93ZM477.88,168.61h1.84l-.89-11.76h-.19l-.75,11.76Z"/>
      <path class="cls-2" d="M485.37,152.92h5.35c1.62,0,2.77.6,3.46,1.79.69,1.19,1.04,2.94,1.04,5.23s-.31,4.03-.92,5.19c-.61,1.17-1.71,1.75-3.3,1.75h-1.65v9.15h-3.98v-23.11ZM489.58,162.72c.49,0,.84-.1,1.07-.31.23-.21.38-.5.45-.89.07-.39.11-.94.11-1.65,0-.97-.09-1.67-.28-2.1s-.57-.65-1.13-.65h-.45v5.6h.24Z"/>
      <path class="cls-2" d="M498.93,176.04v-7.61l-3.23-15.5h4l1.13,7.83,1.13-7.83h4l-3.23,15.5v7.61h-3.81Z"/>
    </g>
  </g>
  <g id="Layer_2" data-name="Layer 2">
    <path class="cls-3" d="M137.56,173.45H57.32c-.02-3.07-.56-8.98,2.48-10.9,1.6-1.01,3.91-.62,5.88-1.35,4.5-1.68,8.41-5,13.69-4.38l.36-1.43c-12.5-7.75-24.4-26.08-25.13-41.08-.04-.85-.43-1.31.55-1.97h96.24c3.31-.65,2.11-7.19,1.72-9.74-.2-.32-1.96-1.45-2.17-1.45h-23.49l19.53-31.81c.59-.43,6.88,5.43,10.14-.32,2.35-4.14-.93-6.82-3.64-9.44-2.55-2.48-20.01-16.44-22.23-16.87-7.29-1.42-8.71,9.01-1.97,12.17l-.48,1.68-37.51,44.22-44.46.36-3.61,1.45c-1.15,12.28,2.37,24.79,8.32,35.42-1.36.32-1.72-.76-2.53-1.44-10.99-9.2-27.49-27.9-33.75-40.71C2.48,69.74,7.7,36.32,34.43,21.52c21.69-12,45.91-4.29,62.39,12.36,9.16-8.52,18.76-14.69,31.31-16.98,24.38-4.45,46.38,10.58,53.87,33.68,14.32,44.19-27.85,79.54-58.84,103.06,2.39,8.33,5.86,6.35,11.53,8.58,4.4,1.73,2.5,7.56,2.87,11.22Z"/>
    <g>
      <path class="cls-1" d="M175.27,138.53c-5.32-5.22-7.97-13.13-7.97-23.73v-44.23c0-9.48,3.09-16.65,9.29-21.52,6.19-4.86,15.42-6.52,27.68-6.52,9.93,0,17.63,1.36,23.13,4.06,5.49,2.71,9.29,6.65,11.39,11.83,2.1,5.18,3.15,11.83,3.15,19.96h-29.43v-9.2c0-2.47-.5-4.38-1.49-5.74-.99-1.35-2.78-2.03-5.34-2.03-5.72,0-8.59,2.55-8.59,7.65v49.72c0,3.11.58,5.46,1.75,7.05,1.17,1.59,3.21,2.39,6.13,2.39s4.96-.8,6.13-2.39c1.17-1.59,1.75-3.94,1.75-7.05v-14.7h-8.06v-17.69h36.79v59.76h-12.09l-5.08-8.61c-5.37,6.38-13.67,9.56-24.88,9.56s-18.95-3.38-24.26-8.6ZM245.51,43.5h41.52c10.74,0,18.8,2.03,24.18,6.1,5.37,4.06,8.12,10.08,8.23,18.05l.35,48.05c.11,10.12-2.45,17.73-7.71,22.83-5.26,5.1-13.96,7.65-26.1,7.65h-40.47V43.5ZM281.08,128.01c5.49,0,8.23-1.83,8.23-5.5v-52.95c0-2.31-.26-4.04-.79-5.2-.53-1.15-1.49-1.93-2.89-2.33-1.4-.4-3.56-.6-6.48-.6h-3.33v66.58h5.26ZM323.9,146.18V43.5h45.9l12.61,62.63,12.61-62.63h46.25v102.68h-27.51v-73.99l-17.34,73.99h-26.98l-18.4-73.99v73.99h-27.15ZM463.97,146.18V63.23h-17.87v-19.72h65.87v19.72h-17.87v82.95h-30.13Z"/>
      <path class="cls-2" d="M175.27,138.53c-5.32-5.22-7.97-13.13-7.97-23.73v-44.23c0-9.48,3.09-16.65,9.29-21.52,6.19-4.86,15.42-6.52,27.68-6.52,9.93,0,17.63,1.36,23.13,4.06,5.49,2.71,9.29,6.65,11.39,11.83,2.1,5.18,3.15,11.83,3.15,19.96h-29.43v-9.2c0-2.47-.5-4.38-1.49-5.74-.99-1.35-2.78-2.03-5.34-2.03-5.72,0-8.59,2.55-8.59,7.65v49.72c0,3.11.58,5.46,1.75,7.05,1.17,1.59,3.21,2.39,6.13,2.39s4.96-.8,6.13-2.39c1.17-1.59,1.75-3.94,1.75-7.05v-14.7h-8.06v-17.69h36.79v59.76h-12.09l-5.08-8.61c-5.37,6.38-13.67,9.56-24.88,9.56s-18.95-3.38-24.26-8.6ZM245.51,43.5h41.52c10.74,0,18.8,2.03,24.18,6.1,5.37,4.06,8.12,10.08,8.23,18.05l.35,48.05c.11,10.12-2.45,17.73-7.71,22.83-5.26,5.1-13.96,7.65-26.1,7.65h-40.47V43.5ZM281.08,128.01c5.49,0,8.23-1.83,8.23-5.5v-52.95c0-2.31-.26-4.04-.79-5.2-.53-1.15-1.49-1.93-2.89-2.33-1.4-.4-3.56-.6-6.48-.6h-3.33v66.58h5.26ZM323.9,146.18V43.5h45.9l12.61,62.63,12.61-62.63h46.25v102.68h-27.51v-73.99l-17.34,73.99h-26.98l-18.4-73.99v73.99h-27.15ZM463.97,146.18V63.23h-17.87v-19.72h65.87v19.72h-17.87v82.95h-30.13Z"/>
    </g>
  </g>
</svg>