<?xml version="1.0" encoding="UTF-8"?>
<svg id="Layer_1" data-name="Layer 1" xmlns="http://www.w3.org/2000/svg" viewBox="0 0 521.45 195.43">
  <defs>
    <style>
      .cls-1 {
        fill: none;
        stroke: #fff;
        stroke-miterlimit: 10;
        stroke-width: 8.25px;
      }

      .cls-2 {
        fill: #231f20;
      }

      .cls-3 {
        fill: #be1e2d;
      }
    </style>
  </defs>
  <path class="cls-3" d="M137.82,174.45H57.58c-.02-3.07-.56-8.98,2.48-10.9,1.6-1.01,3.91-.62,5.88-1.35,4.5-1.68,8.41-5,13.69-4.38l.36-1.43c-12.5-7.75-24.4-26.08-25.13-41.08-.04-.85-.43-1.31.55-1.97h96.24c3.31-.65,2.11-7.19,1.72-9.74-.2-.32-1.96-1.45-2.17-1.45h-23.49l19.53-31.81c.59-.43,6.88,5.43,10.14-.32,2.35-4.14-.93-6.82-3.64-9.44-2.55-2.48-20.01-16.44-22.23-16.87-7.29-1.42-8.71,9.01-1.97,12.17l-.48,1.68-37.51,44.22-44.46.36-3.61,1.45c-1.15,12.28,2.37,24.79,8.32,35.42-1.36.32-1.72-.76-2.53-1.44-10.99-9.2-27.49-27.9-33.75-40.71C2.74,70.74,7.95,37.31,34.68,22.52c21.69-12,45.91-4.29,62.39,12.36,9.16-8.52,18.76-14.69,31.31-16.98,24.38-4.45,46.38,10.58,53.87,33.68,14.32,44.19-27.85,79.54-58.84,103.06,2.39,8.33,5.86,6.35,11.53,8.58,4.4,1.73,2.5,7.56,2.87,11.22Z"/>
  <g>
    <path class="cls-1" d="M175.53,139.53c-5.32-5.22-7.97-13.13-7.97-23.73v-44.23c0-9.48,3.09-16.65,9.29-21.52,6.19-4.86,15.42-6.52,27.68-6.52,9.93,0,17.63,1.36,23.13,4.06,5.49,2.71,9.29,6.65,11.39,11.83,2.1,5.18,3.15,11.83,3.15,19.96h-29.43v-9.2c0-2.47-.5-4.38-1.49-5.74-.99-1.35-2.78-2.03-5.34-2.03-5.72,0-8.59,2.55-8.59,7.65v49.72c0,3.11.58,5.46,1.75,7.05,1.17,1.59,3.21,2.39,6.13,2.39s4.96-.8,6.13-2.39c1.17-1.59,1.75-3.94,1.75-7.05v-14.7h-8.06v-17.69h36.79v59.76h-12.09l-5.08-8.61c-5.37,6.38-13.67,9.56-24.88,9.56s-18.95-3.38-24.26-8.6ZM245.77,44.5h41.52c10.74,0,18.8,2.03,24.18,6.1,5.37,4.06,8.12,10.08,8.23,18.05l.35,48.05c.11,10.12-2.45,17.73-7.71,22.83-5.26,5.1-13.96,7.65-26.1,7.65h-40.47V44.5ZM281.34,129.01c5.49,0,8.23-1.83,8.23-5.5v-52.95c0-2.31-.26-4.04-.79-5.2-.53-1.15-1.49-1.93-2.89-2.33-1.4-.4-3.56-.6-6.48-.6h-3.33v66.58h5.26ZM324.16,147.18V44.5h45.9l12.61,62.63,12.61-62.63h46.25v102.68h-27.51v-73.99l-17.34,73.99h-26.98l-18.4-73.99v73.99h-27.15ZM464.23,147.18v-82.95h-17.87v-19.72h65.87v19.72h-17.87v82.95h-30.13Z"/>
    <path class="cls-2" d="M175.53,139.53c-5.32-5.22-7.97-13.13-7.97-23.73v-44.23c0-9.48,3.09-16.65,9.29-21.52,6.19-4.86,15.42-6.52,27.68-6.52,9.93,0,17.63,1.36,23.13,4.06,5.49,2.71,9.29,6.65,11.39,11.83,2.1,5.18,3.15,11.83,3.15,19.96h-29.43v-9.2c0-2.47-.5-4.38-1.49-5.74-.99-1.35-2.78-2.03-5.34-2.03-5.72,0-8.59,2.55-8.59,7.65v49.72c0,3.11.58,5.46,1.75,7.05,1.17,1.59,3.21,2.39,6.13,2.39s4.96-.8,6.13-2.39c1.17-1.59,1.75-3.94,1.75-7.05v-14.7h-8.06v-17.69h36.79v59.76h-12.09l-5.08-8.61c-5.37,6.38-13.67,9.56-24.88,9.56s-18.95-3.38-24.26-8.6ZM245.77,44.5h41.52c10.74,0,18.8,2.03,24.18,6.1,5.37,4.06,8.12,10.08,8.23,18.05l.35,48.05c.11,10.12-2.45,17.73-7.71,22.83-5.26,5.1-13.96,7.65-26.1,7.65h-40.47V44.5ZM281.34,129.01c5.49,0,8.23-1.83,8.23-5.5v-52.95c0-2.31-.26-4.04-.79-5.2-.53-1.15-1.49-1.93-2.89-2.33-1.4-.4-3.56-.6-6.48-.6h-3.33v66.58h5.26ZM324.16,147.18V44.5h45.9l12.61,62.63,12.61-62.63h46.25v102.68h-27.51v-73.99l-17.34,73.99h-26.98l-18.4-73.99v73.99h-27.15ZM464.23,147.18v-82.95h-17.87v-19.72h65.87v19.72h-17.87v82.95h-30.13Z"/>
  </g>
</svg>